<?xml version="1.0" encoding="UTF-8" standalone="no"?>
<svg xmlns="http://www.w3.org/2000/svg" width="640" height="640">
  <rect width="636.08752" height="636.0827" x="1.9542732" y="1.9535065" fill="#123e3f" stroke="#f95" stroke-width="3.91166043" rx="10" ry="10"/>
  <g transform="translate(30 40)">
    <path fill="#34e2af" d="M10 23v4h111.25v-4H10zm-.0625 30v4.03125l111.59375.21875v-4.03125L9.9375 53z" color="#000" font-family="Sans" font-size="xx-small" font-weight="400" overflow="visible" style="text-indent:0;text-align:start;line-height:normal;text-transform:none;block-progression:tb;marker:none;-inkscape-font-specification:Sans"/>
    <path fill="#f8ffff" d="M5-9.9999974c-2.761424 0-5 2.23858-5 5C0-2.23858 2.238576 0 5 0s5-2.23858 5-4.9999974c0-2.76142-2.238576-5-5-5zm0 2.5c1.380712 0 2.5 1.11929 2.5 2.5C7.5-3.619287 6.380712-2.5 5-2.5S2.5-3.619287 2.5-4.9999974c0-1.38071 1.119288-2.5 2.5-2.5zM5 19.999995c-2.761424 0-5 2.23858-5 5 0 2.761417 2.238576 4.999997 5 4.999997s5-2.23858 5-4.999997c0-2.76142-2.238576-5-5-5zm0 2.5c1.380712 0 2.5 1.11929 2.5 2.5S6.380712 27.499992 5 27.499992s-2.5-1.119287-2.5-2.499997 1.119288-2.5 2.5-2.5zm0 27.499992c-2.761424 0-5 2.23858-5 5 0 2.761417 2.238576 4.999997 5 4.999997s5-2.23858 5-4.999997c0-2.76142-2.238576-5-5-5zm0 2.5c1.380712 0 2.5 1.11929 2.5 2.5S6.380712 57.499984 5 57.499984s-2.5-1.119287-2.5-2.499997 1.119288-2.5 2.5-2.5zM5 79.99998c-2.761424 0-5 2.23858-5 5 0 2.761417 2.238576 4.999997 5 4.999997s5-2.23858 5-4.999997c0-2.76142-2.238576-5-5-5zm0 2.5c1.380712 0 2.5 1.11929 2.5 2.5S6.380712 87.499977 5 87.499977 2.5 86.38069 2.5 84.99998s1.119288-2.5 2.5-2.5zm0 27.49999c-2.761424 0-5 2.23858-5 5s2.238576 5 5 5 5-2.23858 5-5-2.238576-5-5-5zm0 2.5c1.380712 0 2.5 1.11929 2.5 2.5s-1.119288 2.5-2.5 2.5-2.5-1.11929-2.5-2.5 1.119288-2.5 2.5-2.5zm0 27.49999c-2.761424 0-5 2.23858-5 5s2.238576 5 5 5 5-2.23858 5-5-2.238576-5-5-5zm0 2.5c1.380712 0 2.5 1.11929 2.5 2.5s-1.119288 2.5-2.5 2.5-2.5-1.11929-2.5-2.5 1.119288-2.5 2.5-2.5zm0 117.49997c-2.761424 0-5 2.23858-5 5s2.238576 5 5 5 5-2.23858 5-5-2.238576-5-5-5zm0 2.5c1.380712 0 2.5 1.11929 2.5 2.5s-1.119288 2.5-2.5 2.5-2.5-1.11929-2.5-2.5 1.119288-2.5 2.5-2.5zm0 27.49999c-2.761424 0-5 2.23858-5 5s2.238576 5 5 5 5-2.23858 5-5-2.238576-5-5-5zm0 2.5c1.380712 0 2.5 1.11929 2.5 2.5s-1.119288 2.5-2.5 2.5-2.5-1.11929-2.5-2.5 1.119288-2.5 2.5-2.5zm0 27.49999c-2.761424 0-5 2.23858-5 5s2.238576 5 5 5 5-2.23858 5-5-2.238576-5-5-5zm0 2.5c1.380712 0 2.5 1.11929 2.5 2.5s-1.119288 2.5-2.5 2.5-2.5-1.11929-2.5-2.5 1.119288-2.5 2.5-2.5zm0 27.5c-2.761424 0-5 2.23858-5 5s2.238576 5 5 5 5-2.23858 5-5-2.238576-5-5-5zm0 2.5c1.380712 0 2.5 1.11929 2.5 2.5s-1.119288 2.5-2.5 2.5-2.5-1.11929-2.5-2.5 1.119288-2.5 2.5-2.5zm0 27.49999c-2.761424 0-5 2.23858-5 5s2.238576 5 5 5 5-2.23858 5-5-2.238576-5-5-5zm0 2.5c1.380712 0 2.5 1.11929 2.5 2.5s-1.119288 2.5-2.5 2.5-2.5-1.11929-2.5-2.5 1.119288-2.5 2.5-2.5zm0 57.49998c-2.761424 0-5 2.23858-5 5s2.238576 5 5 5 5-2.23858 5-5-2.238576-5-5-5zm0 2.5c1.380712 0 2.5 1.11929 2.5 2.5s-1.119288 2.5-2.5 2.5-2.5-1.11929-2.5-2.5 1.119288-2.5 2.5-2.5zm0 27.5c-2.761424 0-5 2.23858-5 5s2.238576 5 5 5 5-2.23858 5-5-2.238576-5-5-5zm0 2.5c1.380712 0 2.5 1.11929 2.5 2.5s-1.119288 2.5-2.5 2.5-2.5-1.11929-2.5-2.5 1.119288-2.5 2.5-2.5zm0 27.49999c-2.761424 0-5 2.23858-5 5s2.238576 5 5 5 5-2.23858 5-5-2.238576-5-5-5zm0 2.5c1.380712 0 2.5 1.11929 2.5 2.5s-1.119288 2.5-2.5 2.5-2.5-1.11929-2.5-2.5 1.119288-2.5 2.5-2.5zm0 27.49999c-2.761424 0-5 2.23858-5 5s2.238576 5 5 5 5-2.23858 5-5-2.238576-5-5-5zm0 2.5c1.380712 0 2.5 1.11929 2.5 2.5s-1.119288 2.5-2.5 2.5-2.5-1.11929-2.5-2.5 1.119288-2.5 2.5-2.5zm0 27.49999c-2.761424 0-5 2.23858-5 5s2.238576 5 5 5 5-2.23858 5-5-2.238576-5-5-5zm0 2.5c1.380712 0 2.5 1.11929 2.5 2.5s-1.119288 2.5-2.5 2.5-2.5-1.11929-2.5-2.5 1.119288-2.5 2.5-2.5zm30-332.49991c-2.761424 0-5 2.23858-5 5s2.238576 5 5 5 5-2.23858 5-5-2.238576-5-5-5zm0 2.5c1.380712 0 2.5 1.11929 2.5 2.5s-1.119288 2.5-2.5 2.5-2.5-1.11929-2.5-2.5 1.119288-2.5 2.5-2.5zm0 27.49999c-2.761424 0-5 2.23858-5 5s2.238576 5 5 5 5-2.23858 5-5-2.238576-5-5-5zm0 2.5c1.380712 0 2.5 1.11929 2.5 2.5s-1.119288 2.5-2.5 2.5-2.5-1.11929-2.5-2.5 1.119288-2.5 2.5-2.5zm0 27.49999c-2.761424 0-5 2.23858-5 5s2.238576 5 5 5 5-2.23858 5-5-2.238576-5-5-5zm0 2.5c1.380712 0 2.5 1.11929 2.5 2.5s-1.119288 2.5-2.5 2.5-2.5-1.11929-2.5-2.5 1.119288-2.5 2.5-2.5zm0 147.49996c-2.761424 0-5 2.23858-5 5s2.238576 5 5 5 5-2.23858 5-5-2.238576-5-5-5zm0 2.5c1.380712 0 2.5 1.11929 2.5 2.5s-1.119288 2.5-2.5 2.5-2.5-1.11929-2.5-2.5 1.119288-2.5 2.5-2.5zm30-212.49994c-2.761424 0-5 2.23858-5 5s2.238576 5 5 5 5-2.23858 5-5-2.238576-5-5-5zm0 2.5c1.380712 0 2.5 1.11929 2.5 2.5s-1.119288 2.5-2.5 2.5-2.5-1.11929-2.5-2.5 1.119288-2.5 2.5-2.5zm0 27.49999c-2.761424 0-5 2.23858-5 5s2.238576 5 5 5 5-2.23858 5-5-2.238576-5-5-5zm0 2.5c1.380712 0 2.5 1.11929 2.5 2.5s-1.119288 2.5-2.5 2.5-2.5-1.11929-2.5-2.5 1.119288-2.5 2.5-2.5zm0 87.49998c-2.761424 0-5 2.23858-5 5s2.238576 5 5 5 5-2.23858 5-5-2.238576-5-5-5zm0 2.5c1.380712 0 2.5 1.11929 2.5 2.5s-1.119288 2.5-2.5 2.5-2.5-1.11929-2.5-2.5 1.119288-2.5 2.5-2.5zm0 27.49999c-2.761424 0-5 2.23858-5 5s2.238576 5 5 5 5-2.23858 5-5-2.238576-5-5-5zm0 2.5c1.380712 0 2.5 1.11929 2.5 2.5s-1.119288 2.5-2.5 2.5-2.5-1.11929-2.5-2.5 1.119288-2.5 2.5-2.5zm60-302.49992c-2.76142 0-5 2.23858-5 5 0 2.761417 2.23858 4.999997 5 4.999997s5-2.23858 5-4.999997c0-2.76142-2.23858-5-5-5zm0 2.5c1.38071 0 2.5 1.11929 2.5 2.5s-1.11929 2.499997-2.5 2.499997-2.5-1.119287-2.5-2.499997 1.11929-2.5 2.5-2.5zm-30 57.49998c-2.761424 0-5 2.23858-5 5s2.238576 5 5 5 5-2.23858 5-5-2.238576-5-5-5zm0 2.5c1.380712 0 2.5 1.11929 2.5 2.5s-1.119288 2.5-2.5 2.5-2.5-1.11929-2.5-2.5 1.119288-2.5 2.5-2.5zm0 27.49999c-2.761424 0-5 2.23858-5 5s2.238576 5 5 5 5-2.23858 5-5-2.238576-5-5-5zm0 2.5c1.380712 0 2.5 1.11929 2.5 2.5s-1.119288 2.5-2.5 2.5-2.5-1.11929-2.5-2.5 1.119288-2.5 2.5-2.5zm0 27.5c-2.761424 0-5 2.23858-5 5s2.238576 5 5 5 5-2.23858 5-5-2.238576-5-5-5zm0 2.5c1.380712 0 2.5 1.11929 2.5 2.5s-1.119288 2.5-2.5 2.5-2.5-1.11929-2.5-2.5 1.119288-2.5 2.5-2.5zm0 27.49999c-2.761424 0-5 2.23858-5 5s2.238576 5 5 5 5-2.23858 5-5-2.238576-5-5-5zm0 2.5c1.380712 0 2.5 1.11929 2.5 2.5s-1.119288 2.5-2.5 2.5-2.5-1.11929-2.5-2.5 1.119288-2.5 2.5-2.5zm0 27.49999c-2.761424 0-5 2.23858-5 5s2.238576 5 5 5 5-2.23858 5-5-2.238576-5-5-5zm0 2.5c1.380712 0 2.5 1.11929 2.5 2.5s-1.119288 2.5-2.5 2.5-2.5-1.11929-2.5-2.5 1.119288-2.5 2.5-2.5zm0 87.49998c-2.761424 0-5 2.23858-5 5s2.238576 5 5 5 5-2.23858 5-5-2.238576-5-5-5zm0 2.5c1.380712 0 2.5 1.11929 2.5 2.5s-1.119288 2.5-2.5 2.5-2.5-1.11929-2.5-2.5 1.119288-2.5 2.5-2.5zM125-9.9999974c-2.76142 0-5 2.23858-5 5C120-2.23858 122.23858 0 125 0s5-2.23858 5-4.9999974c0-2.76142-2.23858-5-5-5zm0 2.5c1.38071 0 2.5 1.11929 2.5 2.5C127.5-3.619287 126.38071-2.5 125-2.5s-2.5-1.119287-2.5-2.4999974c0-1.38071 1.11929-2.5 2.5-2.5zm0 27.4999924c-2.76142 0-5 2.23858-5 5 0 2.761417 2.23858 4.999997 5 4.999997s5-2.23858 5-4.999997c0-2.76142-2.23858-5-5-5zm0 2.5c1.38071 0 2.5 1.11929 2.5 2.5s-1.11929 2.499997-2.5 2.499997-2.5-1.119287-2.5-2.499997 1.11929-2.5 2.5-2.5zm0 27.499992c-2.76142 0-5 2.23858-5 5 0 2.761417 2.23858 4.999997 5 4.999997s5-2.23858 5-4.999997c0-2.76142-2.23858-5-5-5zm0 2.5c1.38071 0 2.5 1.11929 2.5 2.5s-1.11929 2.499997-2.5 2.499997-2.5-1.119287-2.5-2.499997 1.11929-2.5 2.5-2.5zm0 57.499983c-2.76142 0-5 2.23858-5 5s2.23858 5 5 5 5-2.23858 5-5-2.23858-5-5-5zm0 2.5c1.38071 0 2.5 1.11929 2.5 2.5s-1.11929 2.5-2.5 2.5-2.5-1.11929-2.5-2.5 1.11929-2.5 2.5-2.5zm0 57.49998c-2.76142 0-5 2.23858-5 5s2.23858 5 5 5 5-2.23858 5-5-2.23858-5-5-5zm0 2.5c1.38071 0 2.5 1.11929 2.5 2.5s-1.11929 2.5-2.5 2.5-2.5-1.11929-2.5-2.5 1.11929-2.5 2.5-2.5zm0 207.49995c-2.76142 0-5 2.23858-5 5s2.23858 5 5 5 5-2.23858 5-5-2.23858-5-5-5zm0 2.5c1.38071 0 2.5 1.11929 2.5 2.5s-1.11929 2.5-2.5 2.5-2.5-1.11929-2.5-2.5 1.11929-2.5 2.5-2.5zM155-9.9999974c-2.76142 0-5 2.23858-5 5C150-2.23858 152.23858 0 155 0s5-2.23858 5-4.9999974c0-2.76142-2.23858-5-5-5zm0 2.5c1.38071 0 2.5 1.11929 2.5 2.5C157.5-3.619287 156.38071-2.5 155-2.5s-2.5-1.119287-2.5-2.4999974c0-1.38071 1.11929-2.5 2.5-2.5zm0 117.4999674c-2.76142 0-5 2.23858-5 5s2.23858 5 5 5 5-2.23858 5-5-2.23858-5-5-5zm0 2.5c1.38071 0 2.5 1.11929 2.5 2.5s-1.11929 2.5-2.5 2.5-2.5-1.11929-2.5-2.5 1.11929-2.5 2.5-2.5zm0 57.49998c-2.76142 0-5 2.23858-5 5s2.23858 5 5 5 5-2.23858 5-5-2.23858-5-5-5zm0 2.5c1.38071 0 2.5 1.11929 2.5 2.5s-1.11929 2.5-2.5 2.5-2.5-1.11929-2.5-2.5 1.11929-2.5 2.5-2.5zm0 237.49994c-2.76142 0-5 2.23858-5 5s2.23858 5 5 5 5-2.23858 5-5-2.23858-5-5-5zm0 2.5c1.38071 0 2.5 1.11929 2.5 2.5s-1.11929 2.5-2.5 2.5-2.5-1.11929-2.5-2.5 1.11929-2.5 2.5-2.5zM185-9.9999974c-2.76142 0-5 2.23858-5 5C180-2.23858 182.23858 0 185 0s5-2.23858 5-4.9999974c0-2.76142-2.23858-5-5-5zm0 2.5c1.38071 0 2.5 1.11929 2.5 2.5C187.5-3.619287 186.38071-2.5 185-2.5s-2.5-1.119287-2.5-2.4999974c0-1.38071 1.11929-2.5 2.5-2.5zm0 117.4999674c-2.76142 0-5 2.23858-5 5s2.23858 5 5 5 5-2.23858 5-5-2.23858-5-5-5zm0 2.5c1.38071 0 2.5 1.11929 2.5 2.5s-1.11929 2.5-2.5 2.5-2.5-1.11929-2.5-2.5 1.11929-2.5 2.5-2.5zm0 57.49998c-2.76142 0-5 2.23858-5 5s2.23858 5 5 5 5-2.23858 5-5-2.23858-5-5-5zm0 2.5c1.38071 0 2.5 1.11929 2.5 2.5s-1.11929 2.5-2.5 2.5-2.5-1.11929-2.5-2.5 1.11929-2.5 2.5-2.5zm0 267.49993c-2.76142 0-5 2.23858-5 5s2.23858 5 5 5 5-2.23858 5-5-2.23858-5-5-5zm0 2.5c1.38071 0 2.5 1.11929 2.5 2.5s-1.11929 2.5-2.5 2.5-2.5-1.11929-2.5-2.5 1.11929-2.5 2.5-2.5zm0 117.49997c-2.76142 0-5 2.23858-5 5s2.23858 5 5 5 5-2.23858 5-5-2.23858-5-5-5zm0 2.5c1.38071 0 2.5 1.11929 2.5 2.5s-1.11929 2.5-2.5 2.5-2.5-1.11929-2.5-2.5 1.11929-2.5 2.5-2.5zM215-9.9999974c-2.76142 0-5 2.23858-5 5C210-2.23858 212.23858 0 215 0s5-2.23858 5-4.9999974c0-2.76142-2.23858-5-5-5zm0 2.5c1.38071 0 2.5 1.11929 2.5 2.5C217.5-3.619287 216.38071-2.5 215-2.5s-2.5-1.119287-2.5-2.4999974c0-1.38071 1.11929-2.5 2.5-2.5zm0 57.4999844c-2.76142 0-5 2.23858-5 5 0 2.761417 2.23858 4.999997 5 4.999997s5-2.23858 5-4.999997c0-2.76142-2.23858-5-5-5zm0 2.5c1.38071 0 2.5 1.11929 2.5 2.5s-1.11929 2.499997-2.5 2.499997-2.5-1.119287-2.5-2.499997 1.11929-2.5 2.5-2.5zm0 117.499963c-2.76142 0-5 2.23858-5 5s2.23858 5 5 5 5-2.23858 5-5-2.23858-5-5-5zm0 2.5c1.38071 0 2.5 1.11929 2.5 2.5s-1.11929 2.5-2.5 2.5-2.5-1.11929-2.5-2.5 1.11929-2.5 2.5-2.5zm0 117.49997c-2.76142 0-5 2.23858-5 5s2.23858 5 5 5 5-2.23858 5-5-2.23858-5-5-5zm0 2.5c1.38071 0 2.5 1.11929 2.5 2.5s-1.11929 2.5-2.5 2.5-2.5-1.11929-2.5-2.5 1.11929-2.5 2.5-2.5zm0 27.49999c-2.76142 0-5 2.23858-5 5s2.23858 5 5 5 5-2.23858 5-5-2.23858-5-5-5zm0 2.5c1.38071 0 2.5 1.11929 2.5 2.5s-1.11929 2.5-2.5 2.5-2.5-1.11929-2.5-2.5 1.11929-2.5 2.5-2.5zm0 27.5c-2.76142 0-5 2.23858-5 5s2.23858 5 5 5 5-2.23858 5-5-2.23858-5-5-5zm0 2.5c1.38071 0 2.5 1.11929 2.5 2.5s-1.11929 2.5-2.5 2.5-2.5-1.11929-2.5-2.5 1.11929-2.5 2.5-2.5zm0 27.49999c-2.76142 0-5 2.23858-5 5s2.23858 5 5 5 5-2.23858 5-5-2.23858-5-5-5zm0 2.5c1.38071 0 2.5 1.11929 2.5 2.5s-1.11929 2.5-2.5 2.5-2.5-1.11929-2.5-2.5 1.11929-2.5 2.5-2.5zm0 27.49999c-2.76142 0-5 2.23858-5 5s2.23858 5 5 5 5-2.23858 5-5-2.23858-5-5-5zm0 2.5c1.38071 0 2.5 1.11929 2.5 2.5s-1.11929 2.5-2.5 2.5-2.5-1.11929-2.5-2.5 1.11929-2.5 2.5-2.5zm0 27.49999c-2.76142 0-5 2.23858-5 5s2.23858 5 5 5 5-2.23858 5-5-2.23858-5-5-5zm0 2.5c1.38071 0 2.5 1.11929 2.5 2.5s-1.11929 2.5-2.5 2.5-2.5-1.11929-2.5-2.5 1.11929-2.5 2.5-2.5zm0 27.5c-2.76142 0-5 2.23858-5 5s2.23858 5 5 5 5-2.23858 5-5-2.23858-5-5-5zm0 2.5c1.38071 0 2.5 1.11929 2.5 2.5s-1.11929 2.5-2.5 2.5-2.5-1.11929-2.5-2.5 1.11929-2.5 2.5-2.5zm0 87.49997c-2.76142 0-5 2.23858-5 5s2.23858 5 5 5 5-2.23858 5-5-2.23858-5-5-5zm0 2.5c1.38071 0 2.5 1.11929 2.5 2.5s-1.11929 2.5-2.5 2.5-2.5-1.11929-2.5-2.5 1.11929-2.5 2.5-2.5zm30-542.499855c-2.76142 0-5 2.23858-5 5 0 2.761417 2.23858 4.999997 5 4.999997s5-2.23858 5-4.999997c0-2.76142-2.23858-5-5-5zm0 2.5c1.38071 0 2.5 1.11929 2.5 2.5s-1.11929 2.499997-2.5 2.499997-2.5-1.119287-2.5-2.499997 1.11929-2.5 2.5-2.5zm0 27.499992c-2.76142 0-5 2.23858-5 5 0 2.761417 2.23858 4.999997 5 4.999997s5-2.23858 5-4.999997c0-2.76142-2.23858-5-5-5zm0 2.5c1.38071 0 2.5 1.11929 2.5 2.5s-1.11929 2.499997-2.5 2.499997-2.5-1.119287-2.5-2.499997 1.11929-2.5 2.5-2.5zm0 27.499993c-2.76142 0-5 2.23858-5 5 0 2.761417 2.23858 4.999997 5 4.999997s5-2.23858 5-4.999997c0-2.76142-2.23858-5-5-5zm0 2.5c1.38071 0 2.5 1.11929 2.5 2.5s-1.11929 2.499997-2.5 2.499997-2.5-1.119287-2.5-2.499997 1.11929-2.5 2.5-2.5zm0 27.49999c-2.76142 0-5 2.23858-5 5s2.23858 5 5 5 5-2.23858 5-5-2.23858-5-5-5zm0 2.5c1.38071 0 2.5 1.11929 2.5 2.5s-1.11929 2.5-2.5 2.5-2.5-1.11929-2.5-2.5 1.11929-2.5 2.5-2.5zm0 27.49999c-2.76142 0-5 2.23858-5 5s2.23858 5 5 5 5-2.23858 5-5-2.23858-5-5-5zm0 2.5c1.38071 0 2.5 1.11929 2.5 2.5s-1.11929 2.5-2.5 2.5-2.5-1.11929-2.5-2.5 1.11929-2.5 2.5-2.5zm0 27.49999c-2.76142 0-5 2.23858-5 5s2.23858 5 5 5 5-2.23858 5-5-2.23858-5-5-5zm0 2.5c1.38071 0 2.5 1.11929 2.5 2.5s-1.11929 2.5-2.5 2.5-2.5-1.11929-2.5-2.5 1.11929-2.5 2.5-2.5zm0 117.49997c-2.76142 0-5 2.23858-5 5s2.23858 5 5 5 5-2.23858 5-5-2.23858-5-5-5zm0 2.5c1.38071 0 2.5 1.11929 2.5 2.5s-1.11929 2.5-2.5 2.5-2.5-1.11929-2.5-2.5 1.11929-2.5 2.5-2.5zm0 147.49996c-2.76142 0-5 2.23858-5 5s2.23858 5 5 5 5-2.23858 5-5-2.23858-5-5-5zm0 2.5c1.38071 0 2.5 1.11929 2.5 2.5s-1.11929 2.5-2.5 2.5-2.5-1.11929-2.5-2.5 1.11929-2.5 2.5-2.5zm0 87.49998c-2.76142 0-5 2.23858-5 5s2.23858 5 5 5 5-2.23858 5-5-2.23858-5-5-5zm0 2.5c1.38071 0 2.5 1.11929 2.5 2.5s-1.11929 2.5-2.5 2.5-2.5-1.11929-2.5-2.5 1.11929-2.5 2.5-2.5zm0 27.49999c-2.76142 0-5 2.23858-5 5s2.23858 5 5 5 5-2.23858 5-5-2.23858-5-5-5zm0 2.5c1.38071 0 2.5 1.11929 2.5 2.5s-1.11929 2.5-2.5 2.5-2.5-1.11929-2.5-2.5 1.11929-2.5 2.5-2.5zM275-9.9999974c-2.76142 0-5 2.23858-5 5C270-2.23858 272.23858 0 275 0s5-2.23858 5-4.9999974c0-2.76142-2.23858-5-5-5zm0 2.5c1.38071 0 2.5 1.11929 2.5 2.5C277.5-3.619287 276.38071-2.5 275-2.5s-2.5-1.119287-2.5-2.4999974c0-1.38071 1.11929-2.5 2.5-2.5zm0 177.4999474c-2.76142 0-5 2.23858-5 5s2.23858 5 5 5 5-2.23858 5-5-2.23858-5-5-5zm0 2.5c1.38071 0 2.5 1.11929 2.5 2.5s-1.11929 2.5-2.5 2.5-2.5-1.11929-2.5-2.5 1.11929-2.5 2.5-2.5zm0 117.49997c-2.76142 0-5 2.23858-5 5s2.23858 5 5 5 5-2.23858 5-5-2.23858-5-5-5zm0 2.5c1.38071 0 2.5 1.11929 2.5 2.5s-1.11929 2.5-2.5 2.5-2.5-1.11929-2.5-2.5 1.11929-2.5 2.5-2.5zm0 147.49996c-2.76142 0-5 2.23858-5 5s2.23858 5 5 5 5-2.23858 5-5-2.23858-5-5-5zm0 2.5c1.38071 0 2.5 1.11929 2.5 2.5s-1.11929 2.5-2.5 2.5-2.5-1.11929-2.5-2.5 1.11929-2.5 2.5-2.5zm0 27.5c-2.76142 0-5 2.23858-5 5s2.23858 5 5 5 5-2.23858 5-5-2.23858-5-5-5zm0 2.5c1.38071 0 2.5 1.11929 2.5 2.5s-1.11929 2.5-2.5 2.5-2.5-1.11929-2.5-2.5 1.11929-2.5 2.5-2.5zm0 27.49999c-2.76142 0-5 2.23858-5 5s2.23858 5 5 5 5-2.23858 5-5-2.23858-5-5-5zm0 2.5c1.38071 0 2.5 1.11929 2.5 2.5s-1.11929 2.5-2.5 2.5-2.5-1.11929-2.5-2.5 1.11929-2.5 2.5-2.5zm0 27.49999c-2.76142 0-5 2.23858-5 5s2.23858 5 5 5 5-2.23858 5-5-2.23858-5-5-5zm0 2.5c1.38071 0 2.5 1.11929 2.5 2.5s-1.11929 2.5-2.5 2.5-2.5-1.11929-2.5-2.5 1.11929-2.5 2.5-2.5zM305-9.9999974c-2.76142 0-5 2.23858-5 5C300-2.23858 302.23858 0 305 0s5-2.23858 5-4.9999974c0-2.76142-2.23858-5-5-5zm0 2.5c1.38071 0 2.5 1.11929 2.5 2.5C307.5-3.619287 306.38071-2.5 305-2.5s-2.5-1.119287-2.5-2.4999974c0-1.38071 1.11929-2.5 2.5-2.5zm0 207.4999474c-2.76142 0-5 2.23858-5 5s2.23858 5 5 5 5-2.23858 5-5-2.23858-5-5-5zm0 2.5c1.38071 0 2.5 1.11929 2.5 2.5s-1.11929 2.5-2.5 2.5-2.5-1.11929-2.5-2.5 1.11929-2.5 2.5-2.5zm0 87.49997c-2.76142 0-5 2.23858-5 5s2.23858 5 5 5 5-2.23858 5-5-2.23858-5-5-5zm0 2.5c1.38071 0 2.5 1.11929 2.5 2.5s-1.11929 2.5-2.5 2.5-2.5-1.11929-2.5-2.5 1.11929-2.5 2.5-2.5zm0 147.49996c-2.76142 0-5 2.23858-5 5s2.23858 5 5 5 5-2.23858 5-5-2.23858-5-5-5zm0 2.5c1.38071 0 2.5 1.11929 2.5 2.5s-1.11929 2.5-2.5 2.5-2.5-1.11929-2.5-2.5 1.11929-2.5 2.5-2.5zm0 57.49999c-2.76142 0-5 2.23858-5 5s2.23858 5 5 5 5-2.23858 5-5-2.23858-5-5-5zm0 2.5c1.38071 0 2.5 1.11929 2.5 2.5s-1.11929 2.5-2.5 2.5-2.5-1.11929-2.5-2.5 1.11929-2.5 2.5-2.5zM335-9.9999974c-2.76142 0-5 2.23858-5 5C330-2.23858 332.23858 0 335 0s5-2.23858 5-4.9999974c0-2.76142-2.23858-5-5-5zm0 2.5c1.38071 0 2.5 1.11929 2.5 2.5C337.5-3.619287 336.38071-2.5 335-2.5s-2.5-1.119287-2.5-2.4999974c0-1.38071 1.11929-2.5 2.5-2.5zm0 237.4999374c-2.76142 0-5 2.23858-5 5s2.23858 5 5 5 5-2.23858 5-5-2.23858-5-5-5zm0 2.5c1.38071 0 2.5 1.11929 2.5 2.5s-1.11929 2.5-2.5 2.5-2.5-1.11929-2.5-2.5 1.11929-2.5 2.5-2.5zm0 57.49998c-2.76142 0-5 2.23858-5 5s2.23858 5 5 5 5-2.23858 5-5-2.23858-5-5-5zm0 2.5c1.38071 0 2.5 1.11929 2.5 2.5s-1.11929 2.5-2.5 2.5-2.5-1.11929-2.5-2.5 1.11929-2.5 2.5-2.5zm0 147.49996c-2.76142 0-5 2.23858-5 5s2.23858 5 5 5 5-2.23858 5-5-2.23858-5-5-5zm0 2.5c1.38071 0 2.5 1.11929 2.5 2.5s-1.11929 2.5-2.5 2.5-2.5-1.11929-2.5-2.5 1.11929-2.5 2.5-2.5zm0 57.49999c-2.76142 0-5 2.23858-5 5s2.23858 5 5 5 5-2.23858 5-5-2.23858-5-5-5zm0 2.5c1.38071 0 2.5 1.11929 2.5 2.5s-1.11929 2.5-2.5 2.5-2.5-1.11929-2.5-2.5 1.11929-2.5 2.5-2.5zM365-9.9999974c-2.76142 0-5 2.23858-5 5C360-2.23858 362.23858 0 365 0s5-2.23858 5-4.9999974c0-2.76142-2.23858-5-5-5zm0 2.5c1.38071 0 2.5 1.11929 2.5 2.5C367.5-3.619287 366.38071-2.5 365-2.5s-2.5-1.119287-2.5-2.4999974c0-1.38071 1.11929-2.5 2.5-2.5zm0 267.4999274c-2.76142 0-5 2.23858-5 5s2.23858 5 5 5 5-2.23858 5-5-2.23858-5-5-5zm0 2.5c1.38071 0 2.5 1.11929 2.5 2.5s-1.11929 2.5-2.5 2.5-2.5-1.11929-2.5-2.5 1.11929-2.5 2.5-2.5zm0 57.49998c-2.76142 0-5 2.23858-5 5s2.23858 5 5 5 5-2.23858 5-5-2.23858-5-5-5zm0 2.5c1.38071 0 2.5 1.11929 2.5 2.5s-1.11929 2.5-2.5 2.5-2.5-1.11929-2.5-2.5 1.11929-2.5 2.5-2.5zm0 27.5c-2.76142 0-5 2.23858-5 5s2.23858 5 5 5 5-2.23858 5-5-2.23858-5-5-5zm0 2.5c1.38071 0 2.5 1.11929 2.5 2.5s-1.11929 2.5-2.5 2.5-2.5-1.11929-2.5-2.5 1.11929-2.5 2.5-2.5zm0 27.49999c-2.76142 0-5 2.23858-5 5s2.23858 5 5 5 5-2.23858 5-5-2.23858-5-5-5zm0 2.5c1.38071 0 2.5 1.11929 2.5 2.5s-1.11929 2.5-2.5 2.5-2.5-1.11929-2.5-2.5 1.11929-2.5 2.5-2.5zm0 27.49999c-2.76142 0-5 2.23858-5 5s2.23858 5 5 5 5-2.23858 5-5-2.23858-5-5-5zm0 2.5c1.38071 0 2.5 1.11929 2.5 2.5s-1.11929 2.5-2.5 2.5-2.5-1.11929-2.5-2.5 1.11929-2.5 2.5-2.5zm0 27.49999c-2.76142 0-5 2.23858-5 5s2.23858 5 5 5 5-2.23858 5-5-2.23858-5-5-5zm0 2.5c1.38071 0 2.5 1.11929 2.5 2.5s-1.11929 2.5-2.5 2.5-2.5-1.11929-2.5-2.5 1.11929-2.5 2.5-2.5zm0 57.49999c-2.76142 0-5 2.23858-5 5s2.23858 5 5 5 5-2.23858 5-5-2.23858-5-5-5zm0 2.5c1.38071 0 2.5 1.11929 2.5 2.5s-1.11929 2.5-2.5 2.5-2.5-1.11929-2.5-2.5 1.11929-2.5 2.5-2.5zM395-9.9999974c-2.76142 0-5 2.23858-5 5C390-2.23858 392.23858 0 395 0s5-2.23858 5-4.9999974c0-2.76142-2.23858-5-5-5zm0 2.5c1.38071 0 2.5 1.11929 2.5 2.5C397.5-3.619287 396.38071-2.5 395-2.5s-2.5-1.119287-2.5-2.4999974c0-1.38071 1.11929-2.5 2.5-2.5zm0 27.4999924c-2.76142 0-5 2.23858-5 5 0 2.761417 2.23858 4.999997 5 4.999997s5-2.23858 5-4.999997c0-2.76142-2.23858-5-5-5zm0 2.5c1.38071 0 2.5 1.11929 2.5 2.5s-1.11929 2.499997-2.5 2.499997-2.5-1.119287-2.5-2.499997 1.11929-2.5 2.5-2.5zm0 27.499992c-2.76142 0-5 2.23858-5 5 0 2.761417 2.23858 4.999997 5 4.999997s5-2.23858 5-4.999997c0-2.76142-2.23858-5-5-5zm0 2.5c1.38071 0 2.5 1.11929 2.5 2.5s-1.11929 2.499997-2.5 2.499997-2.5-1.119287-2.5-2.499997 1.11929-2.5 2.5-2.5zm0 27.499993c-2.76142 0-5 2.23858-5 5 0 2.761417 2.23858 4.999997 5 4.999997s5-2.23858 5-4.999997c0-2.76142-2.23858-5-5-5zm0 2.5c1.38071 0 2.5 1.11929 2.5 2.5s-1.11929 2.499997-2.5 2.499997-2.5-1.119287-2.5-2.499997 1.11929-2.5 2.5-2.5zm0 27.49999c-2.76142 0-5 2.23858-5 5s2.23858 5 5 5 5-2.23858 5-5-2.23858-5-5-5zm0 2.5c1.38071 0 2.5 1.11929 2.5 2.5s-1.11929 2.5-2.5 2.5-2.5-1.11929-2.5-2.5 1.11929-2.5 2.5-2.5zm0 27.49999c-2.76142 0-5 2.23858-5 5s2.23858 5 5 5 5-2.23858 5-5-2.23858-5-5-5zm0 2.5c1.38071 0 2.5 1.11929 2.5 2.5s-1.11929 2.5-2.5 2.5-2.5-1.11929-2.5-2.5 1.11929-2.5 2.5-2.5zm0 27.49999c-2.76142 0-5 2.23858-5 5s2.23858 5 5 5 5-2.23858 5-5-2.23858-5-5-5zm0 2.5c1.38071 0 2.5 1.11929 2.5 2.5s-1.11929 2.5-2.5 2.5-2.5-1.11929-2.5-2.5 1.11929-2.5 2.5-2.5zm0 267.49993c-2.76142 0-5 2.23858-5 5s2.23858 5 5 5 5-2.23858 5-5-2.23858-5-5-5zm0 2.5c1.38071 0 2.5 1.11929 2.5 2.5s-1.11929 2.5-2.5 2.5-2.5-1.11929-2.5-2.5 1.11929-2.5 2.5-2.5zm0 57.49999c-2.76142 0-5 2.23858-5 5s2.23858 5 5 5 5-2.23858 5-5-2.23858-5-5-5zm0 2.5c1.38071 0 2.5 1.11929 2.5 2.5s-1.11929 2.5-2.5 2.5-2.5-1.11929-2.5-2.5 1.11929-2.5 2.5-2.5zm30-452.499883c-2.76142 0-5 2.23858-5 5 0 2.761417 2.23858 4.999997 5 4.999997s5-2.23858 5-4.999997c0-2.76142-2.23858-5-5-5zm0 2.5c1.38071 0 2.5 1.11929 2.5 2.5s-1.11929 2.499997-2.5 2.499997-2.5-1.119287-2.5-2.499997 1.11929-2.5 2.5-2.5zm0 87.499973c-2.76142 0-5 2.23858-5 5s2.23858 5 5 5 5-2.23858 5-5-2.23858-5-5-5zm0 2.5c1.38071 0 2.5 1.11929 2.5 2.5s-1.11929 2.5-2.5 2.5-2.5-1.11929-2.5-2.5 1.11929-2.5 2.5-2.5zm0 27.49999c-2.76142 0-5 2.23858-5 5s2.23858 5 5 5 5-2.23858 5-5-2.23858-5-5-5zm0 2.5c1.38071 0 2.5 1.11929 2.5 2.5s-1.11929 2.5-2.5 2.5-2.5-1.11929-2.5-2.5 1.11929-2.5 2.5-2.5zm0 297.49993c-2.76142 0-5 2.23858-5 5s2.23858 5 5 5 5-2.23858 5-5-2.23858-5-5-5zm0 2.5c1.38071 0 2.5 1.11929 2.5 2.5s-1.11929 2.5-2.5 2.5-2.5-1.11929-2.5-2.5 1.11929-2.5 2.5-2.5zm0 27.49999c-2.76142 0-5 2.23858-5 5s2.23858 5 5 5 5-2.23858 5-5-2.23858-5-5-5zm0 2.5c1.38071 0 2.5 1.11929 2.5 2.5s-1.11929 2.5-2.5 2.5-2.5-1.11929-2.5-2.5 1.11929-2.5 2.5-2.5zm30-452.499883c-2.76142 0-5 2.23858-5 5 0 2.761417 2.23858 4.999997 5 4.999997s5-2.23858 5-4.999997c0-2.76142-2.23858-5-5-5zm0 2.5c1.38071 0 2.5 1.11929 2.5 2.5s-1.11929 2.499997-2.5 2.499997-2.5-1.119287-2.5-2.499997 1.11929-2.5 2.5-2.5zm0 87.499973c-2.76142 0-5 2.23858-5 5s2.23858 5 5 5 5-2.23858 5-5-2.23858-5-5-5zm0 2.5c1.38071 0 2.5 1.11929 2.5 2.5s-1.11929 2.5-2.5 2.5-2.5-1.11929-2.5-2.5 1.11929-2.5 2.5-2.5zm0 27.49999c-2.76142 0-5 2.23858-5 5s2.23858 5 5 5 5-2.23858 5-5-2.23858-5-5-5zm0 2.5c1.38071 0 2.5 1.11929 2.5 2.5s-1.11929 2.5-2.5 2.5-2.5-1.11929-2.5-2.5 1.11929-2.5 2.5-2.5zm0 267.49993c-2.76142 0-5 2.23858-5 5s2.23858 5 5 5 5-2.23858 5-5-2.23858-5-5-5zm0 2.5c1.38071 0 2.5 1.11929 2.5 2.5s-1.11929 2.5-2.5 2.5-2.5-1.11929-2.5-2.5 1.11929-2.5 2.5-2.5zm30-392.499893c-2.76142 0-5 2.23858-5 5 0 2.761417 2.23858 4.999997 5 4.999997s5-2.23858 5-4.999997c0-2.76142-2.23858-5-5-5zm0 2.5c1.38071 0 2.5 1.11929 2.5 2.5s-1.11929 2.499997-2.5 2.499997-2.5-1.119287-2.5-2.499997 1.11929-2.5 2.5-2.5zm0 87.499973c-2.76142 0-5 2.23858-5 5s2.23858 5 5 5 5-2.23858 5-5-2.23858-5-5-5zm0 2.5c1.38071 0 2.5 1.11929 2.5 2.5s-1.11929 2.5-2.5 2.5-2.5-1.11929-2.5-2.5 1.11929-2.5 2.5-2.5zm0 27.49999c-2.76142 0-5 2.23858-5 5s2.23858 5 5 5 5-2.23858 5-5-2.23858-5-5-5zm0 2.5c1.38071 0 2.5 1.11929 2.5 2.5s-1.11929 2.5-2.5 2.5-2.5-1.11929-2.5-2.5 1.11929-2.5 2.5-2.5zm30-122.499963c-2.76142 0-5 2.23858-5 5 0 2.761417 2.23858 4.999997 5 4.999997s5-2.23858 5-4.999997c0-2.76142-2.23858-5-5-5zm0 2.5c1.38071 0 2.5 1.11929 2.5 2.5s-1.11929 2.499997-2.5 2.499997-2.5-1.119287-2.5-2.499997 1.11929-2.5 2.5-2.5zm0 27.499993c-2.76142 0-5 2.23858-5 5 0 2.761417 2.23858 4.999997 5 4.999997s5-2.23858 5-4.999997c0-2.76142-2.23858-5-5-5zm0 2.5c1.38071 0 2.5 1.11929 2.5 2.5s-1.11929 2.499997-2.5 2.499997-2.5-1.119287-2.5-2.499997 1.11929-2.5 2.5-2.5zm0 27.49999c-2.76142 0-5 2.23858-5 5s2.23858 5 5 5 5-2.23858 5-5-2.23858-5-5-5zm0 2.5c1.38071 0 2.5 1.11929 2.5 2.5s-1.11929 2.5-2.5 2.5-2.5-1.11929-2.5-2.5 1.11929-2.5 2.5-2.5zm0 27.49999c-2.76142 0-5 2.23858-5 5s2.23858 5 5 5 5-2.23858 5-5-2.23858-5-5-5zm0 2.5c1.38071 0 2.5 1.11929 2.5 2.5s-1.11929 2.5-2.5 2.5-2.5-1.11929-2.5-2.5 1.11929-2.5 2.5-2.5zm0 27.49999c-2.76142 0-5 2.23858-5 5s2.23858 5 5 5 5-2.23858 5-5-2.23858-5-5-5zm0 2.5c1.38071 0 2.5 1.11929 2.5 2.5s-1.11929 2.5-2.5 2.5-2.5-1.11929-2.5-2.5 1.11929-2.5 2.5-2.5zm0 27.5c-2.76142 0-5 2.23858-5 5s2.23858 5 5 5 5-2.23858 5-5-2.23858-5-5-5zm0 2.5c1.38071 0 2.5 1.11929 2.5 2.5s-1.11929 2.5-2.5 2.5-2.5-1.11929-2.5-2.5 1.11929-2.5 2.5-2.5zm0 27.49999c-2.76142 0-5 2.23858-5 5s2.23858 5 5 5 5-2.23858 5-5-2.23858-5-5-5zm0 2.5c1.38071 0 2.5 1.11929 2.5 2.5s-1.11929 2.5-2.5 2.5-2.5-1.11929-2.5-2.5 1.11929-2.5 2.5-2.5zm0 27.49999c-2.76142 0-5 2.23858-5 5s2.23858 5 5 5 5-2.23858 5-5-2.23858-5-5-5zm0 2.5c1.38071 0 2.5 1.11929 2.5 2.5s-1.11929 2.5-2.5 2.5-2.5-1.11929-2.5-2.5 1.11929-2.5 2.5-2.5zm0 27.49999c-2.76142 0-5 2.23858-5 5s2.23858 5 5 5 5-2.23858 5-5-2.23858-5-5-5zm0 2.5c1.38071 0 2.5 1.11929 2.5 2.5s-1.11929 2.5-2.5 2.5-2.5-1.11929-2.5-2.5 1.11929-2.5 2.5-2.5zm0 27.49999c-2.76142 0-5 2.23858-5 5s2.23858 5 5 5 5-2.23858 5-5-2.23858-5-5-5zm0 2.5c1.38071 0 2.5 1.11929 2.5 2.5s-1.11929 2.5-2.5 2.5-2.5-1.11929-2.5-2.5 1.11929-2.5 2.5-2.5zm0 27.5c-2.76142 0-5 2.23858-5 5s2.23858 5 5 5 5-2.23858 5-5-2.23858-5-5-5zm0 2.5c1.38071 0 2.5 1.11929 2.5 2.5s-1.11929 2.5-2.5 2.5-2.5-1.11929-2.5-2.5 1.11929-2.5 2.5-2.5zm0 27.49999c-2.76142 0-5 2.23858-5 5s2.23858 5 5 5 5-2.23858 5-5-2.23858-5-5-5zm0 2.5c1.38071 0 2.5 1.11929 2.5 2.5s-1.11929 2.5-2.5 2.5-2.5-1.11929-2.5-2.5 1.11929-2.5 2.5-2.5zm0 27.49999c-2.76142 0-5 2.23858-5 5s2.23858 5 5 5 5-2.23858 5-5-2.23858-5-5-5zm0 2.5c1.38071 0 2.5 1.11929 2.5 2.5s-1.11929 2.5-2.5 2.5-2.5-1.11929-2.5-2.5 1.11929-2.5 2.5-2.5zm0 27.49999c-2.76142 0-5 2.23858-5 5s2.23858 5 5 5 5-2.23858 5-5-2.23858-5-5-5zm0 2.5c1.38071 0 2.5 1.11929 2.5 2.5s-1.11929 2.5-2.5 2.5-2.5-1.11929-2.5-2.5 1.11929-2.5 2.5-2.5zm0 27.5c-2.76142 0-5 2.23858-5 5s2.23858 5 5 5 5-2.23858 5-5-2.23858-5-5-5zm0 2.5c1.38071 0 2.5 1.11929 2.5 2.5s-1.11929 2.5-2.5 2.5-2.5-1.11929-2.5-2.5 1.11929-2.5 2.5-2.5zm0 27.49999c-2.76142 0-5 2.23858-5 5s2.23858 5 5 5 5-2.23858 5-5-2.23858-5-5-5zm0 2.5c1.38071 0 2.5 1.11929 2.5 2.5s-1.11929 2.5-2.5 2.5-2.5-1.11929-2.5-2.5 1.11929-2.5 2.5-2.5zm0 27.49999c-2.76142 0-5 2.23858-5 5s2.23858 5 5 5 5-2.23858 5-5-2.23858-5-5-5zm0 2.5c1.38071 0 2.5 1.11929 2.5 2.5s-1.11929 2.5-2.5 2.5-2.5-1.11929-2.5-2.5 1.11929-2.5 2.5-2.5zm0 27.49999c-2.76142 0-5 2.23858-5 5s2.23858 5 5 5 5-2.23858 5-5-2.23858-5-5-5zm0 2.5c1.38071 0 2.5 1.11929 2.5 2.5s-1.11929 2.5-2.5 2.5-2.5-1.11929-2.5-2.5 1.11929-2.5 2.5-2.5zm30-512.499863c-2.76142 0-5 2.23858-5 5 0 2.761417 2.23858 4.999997 5 4.999997s5-2.23858 5-4.999997c0-2.76142-2.23858-5-5-5zm0 2.5c1.38071 0 2.5 1.11929 2.5 2.5s-1.11929 2.499997-2.5 2.499997-2.5-1.119287-2.5-2.499997 1.11929-2.5 2.5-2.5zm0 27.499993c-2.76142 0-5 2.23858-5 5 0 2.761417 2.23858 4.999997 5 4.999997s5-2.23858 5-4.999997c0-2.76142-2.23858-5-5-5zm0 2.5c1.38071 0 2.5 1.11929 2.5 2.5s-1.11929 2.499997-2.5 2.499997-2.5-1.119287-2.5-2.499997 1.11929-2.5 2.5-2.5zm0 207.49994c-2.76142 0-5 2.23858-5 5s2.23858 5 5 5 5-2.23858 5-5-2.23858-5-5-5zm0 2.5c1.38071 0 2.5 1.11929 2.5 2.5s-1.11929 2.5-2.5 2.5-2.5-1.11929-2.5-2.5 1.11929-2.5 2.5-2.5zm0 27.49999c-2.76142 0-5 2.23858-5 5s2.23858 5 5 5 5-2.23858 5-5-2.23858-5-5-5zm0 2.5c1.38071 0 2.5 1.11929 2.5 2.5s-1.11929 2.5-2.5 2.5-2.5-1.11929-2.5-2.5 1.11929-2.5 2.5-2.5zm0 117.49997c-2.76142 0-5 2.23858-5 5s2.23858 5 5 5 5-2.23858 5-5-2.23858-5-5-5zm0 2.5c1.38071 0 2.5 1.11929 2.5 2.5s-1.11929 2.5-2.5 2.5-2.5-1.11929-2.5-2.5 1.11929-2.5 2.5-2.5zm30-392.499893c-2.76142 0-5 2.23858-5 5 0 2.761417 2.23858 4.999997 5 4.999997s5-2.23858 5-4.999997c0-2.76142-2.23858-5-5-5zm0 2.5c1.38071 0 2.5 1.11929 2.5 2.5s-1.11929 2.499997-2.5 2.499997-2.5-1.119287-2.5-2.499997 1.11929-2.5 2.5-2.5zm0 27.499993c-2.76142 0-5 2.23858-5 5 0 2.761417 2.23858 4.999997 5 4.999997s5-2.23858 5-4.999997c0-2.76142-2.23858-5-5-5zm0 2.5c1.38071 0 2.5 1.11929 2.5 2.5s-1.11929 2.499997-2.5 2.499997-2.5-1.119287-2.5-2.499997 1.11929-2.5 2.5-2.5zm0 207.49994c-2.76142 0-5 2.23858-5 5s2.23858 5 5 5 5-2.23858 5-5-2.23858-5-5-5zm0 2.5c1.38071 0 2.5 1.11929 2.5 2.5s-1.11929 2.5-2.5 2.5-2.5-1.11929-2.5-2.5 1.11929-2.5 2.5-2.5zm0 27.49999c-2.76142 0-5 2.23858-5 5s2.23858 5 5 5 5-2.23858 5-5-2.23858-5-5-5zm0 2.5c1.38071 0 2.5 1.11929 2.5 2.5s-1.11929 2.5-2.5 2.5-2.5-1.11929-2.5-2.5 1.11929-2.5 2.5-2.5zm0 27.5c-2.76142 0-5 2.23858-5 5s2.23858 5 5 5 5-2.23858 5-5-2.23858-5-5-5zm0 2.5c1.38071 0 2.5 1.11929 2.5 2.5s-1.11929 2.5-2.5 2.5-2.5-1.11929-2.5-2.5 1.11929-2.5 2.5-2.5zm0 27.49999c-2.76142 0-5 2.23858-5 5s2.23858 5 5 5 5-2.23858 5-5-2.23858-5-5-5zm0 2.5c1.38071 0 2.5 1.11929 2.5 2.5s-1.11929 2.5-2.5 2.5-2.5-1.11929-2.5-2.5 1.11929-2.5 2.5-2.5zm0 27.49999c-2.76142 0-5 2.23858-5 5s2.23858 5 5 5 5-2.23858 5-5-2.23858-5-5-5zm0 2.5c1.38071 0 2.5 1.11929 2.5 2.5s-1.11929 2.5-2.5 2.5-2.5-1.11929-2.5-2.5 1.11929-2.5 2.5-2.5z"/>
    <path fill="#34e2af" d="M10-7v4h110v-4H10zm143 7v110h4V0h-4zm30 0v110h4V0h-4z" color="#000" font-family="Sans" font-size="xx-small" font-weight="400" overflow="visible" style="text-indent:0;text-align:start;line-height:normal;text-transform:none;block-progression:tb;marker:none;-inkscape-font-specification:Sans"/>
    <path fill="#34e2af" d="M213 60v75c0 1.83333-.97052 3.90802-2.53125 5.46875S206.83333 143 205 143H100v4h105c3.16667 0 6.09198-1.52948 8.28125-3.71875C215.47052 141.09198 217 138.16667 217 135V60h-4zM10 113v4h15.9375c1.833333 0 3.90802.97052 5.46875 2.53125S33.9375 123.16667 33.9375 125v106.3125h4V125c0-3.16667-1.49823-6.09198-3.6875-8.28125C32.06073 114.52948 29.104167 113 25.9375 113H10zm149.9375 64.15625-2.84375 2.8125L270.25 294.25l2.84375-2.8125L159.9375 177.15625zm30-.03125-2.8125 2.8125L300.0625 292.875l2.8125-2.8125L189.9375 177.125zm30 0-2.8125 2.8125L330.0625 292.875l2.8125-2.8125L219.9375 177.125zM250 176.96875l-2.75 2.90625 74.3125 70.28125c7.48744 7.07917 15.34327 14.65168 21.46875 20.71875 3.06274 3.03353 5.6797 5.70834 7.625 7.71875.97265 1.0052 1.78829 1.82657 2.375 2.46875.58671.64218 1.00026 1.18789 1 1.1875 1.07725 1.59778 3.00988 6.28671 3.40625 8.25.19433.96257.89922 5.58398 1.6875 11.40625s1.69625 12.9929 2.5 19.53125l3.96875-.5c-.80612-6.55765-1.70926-13.72208-2.5-19.5625s-1.41759-10.19581-1.71875-11.6875c-.59461-2.94522-2.36918-7.22233-4.03125-9.6875-.34268-.50826-.74574-.93626-1.375-1.625s-1.44851-1.54041-2.4375-2.5625c-1.97798-2.04418-4.61162-4.7347-7.6875-7.78125-6.15177-6.0931-14.01869-13.67833-21.53125-20.78125L250 176.96875zM3 150v110h4V150H3zm126.9375 27.125-2.8125 2.8125L239.84375 292.875l2.84375-2.8125-112.75-112.9375zm-30 0-2.8125 2.8125L210.0625 292.875l2.8125-2.8125L99.9375 177.125zm0 30-2.8125 2.8125L210.0625 322.875l2.8125-2.8125L99.9375 207.125zm0 30-2.8125 2.8125L210.0625 352.875l2.8125-2.8125L99.9375 237.125zm0 30-2.8125 2.8125L210.0625 382.875l2.8125-2.8125L99.9375 267.125zm-30 0-2.8125 2.8125L210.0625 412.875l2.8125-2.8125L69.9375 267.125zm-30 0-2.8125 2.8125L210.0625 442.875l2.8125-2.8125L39.9375 267.125zM10 293v4h20v-4H10zm0 30v4h45c1.833333 0 3.90802.97052 5.46875 2.53125S63 333.16667 63 335v15h4v-15c0-3.16667-1.52948-6.09198-3.71875-8.28125C61.09198 324.52948 58.166667 323 55 323H10zM219.9375-2.875 217.125-.0625l22.9375 22.9375 2.8125-2.8125L219.9375-2.875zM273 0v45c0 1.833333-.97052 3.90802-2.53125 5.46875S266.83333 53 265 53h-15v4h15c3.16667 0 6.09198-1.52948 8.28125-3.71875C275.47052 51.09198 277 48.166667 277 45V0h-4z" color="#000" font-family="Sans" font-size="xx-small" font-weight="400" overflow="visible" style="text-indent:0;text-align:start;line-height:normal;text-transform:none;block-progression:tb;marker:none;-inkscape-font-specification:Sans"/>
    <path fill="#34e2af" d="M303 0v75c0 1.833333-.97052 3.90802-2.53125 5.46875S296.83333 83 295 83h-45v4h45c3.16667 0 6.09198-1.52948 8.28125-3.71875C305.47052 81.09198 307 78.166667 307 75V0h-4z" color="#000" font-family="Sans" font-size="xx-small" font-weight="400" overflow="visible" style="text-indent:0;text-align:start;line-height:normal;text-transform:none;block-progression:tb;marker:none;-inkscape-font-specification:Sans"/>
    <path fill="#34e2af" d="M333 0v105c0 1.83333-.97052 3.90802-2.53125 5.46875S326.83333 113 325 113h-75v4h75c3.16667 0 6.09198-1.52948 8.28125-3.71875C335.47052 111.09198 337 108.16667 337 105V0h-4zm60 180v165c0 1.83333-.97052 3.90802-2.53125 5.46875S386.83333 353 385 353h-15v4h15c3.16667 0 6.09198-1.52948 8.28125-3.71875C395.47052 351.09198 397 348.16667 397 345V180h-4z" color="#000" font-family="Sans" font-size="xx-small" font-weight="400" overflow="visible" style="text-indent:0;text-align:start;line-height:normal;text-transform:none;block-progression:tb;marker:none;-inkscape-font-specification:Sans"/>
    <path fill="#34e2af" d="M423 180v195c0 1.83333-.97052 3.90802-2.53125 5.46875S416.83333 383 415 383h-45v4h45c3.16667 0 6.09198-1.52948 8.28125-3.71875C425.47052 381.09198 427 378.16667 427 375V180h-4zM10 353v4h15c1.833333 0 3.90802.97052 5.46875 2.53125S33 363.16667 33 365v75h4v-75c0-3.16667-1.52948-6.09198-3.71875-8.28125C31.09198 354.52948 28.166667 353 25 353H10z" color="#000" font-family="Sans" font-size="xx-small" font-weight="400" overflow="visible" style="text-indent:0;text-align:start;line-height:normal;text-transform:none;block-progression:tb;marker:none;-inkscape-font-specification:Sans"/>
    <path fill="#34e2af" d="M63 390v75c0 1.83333-.97052 3.90802-2.53125 5.46875S56.833333 473 55 473H10v4h45c3.166667 0 6.09198-1.52948 8.28125-3.71875C65.47052 471.09198 67 468.16667 67 465v-75h-4zm-60 0-.15625 51.46875h4L7 390H3zm277-217v4h75c1.83333 0 3.90802.97052 5.46875 2.53125S363 183.16667 363 185v75h4v-75c0-3.16667-1.52948-6.09198-3.71875-8.28125C361.09198 174.52948 358.16667 173 355 173h-75zm29.9375 34.125-2.8125 2.8125 22.9375 22.9375 2.8125-2.8125-22.9375-22.9375zM363 0v133.53125c0 1.83333-.97052 3.90802-2.53125 5.46875s-3.63542 2.53125-5.46875 2.53125H250.25v4H355c3.16667 0 6.09198-1.52948 8.28125-3.71875 2.18927-2.18927 3.71875-5.11458 3.71875-8.28125V0h-4z" color="#000" font-family="Sans" font-size="xx-small" font-weight="400" overflow="visible" style="text-indent:0;text-align:start;line-height:normal;text-transform:none;block-progression:tb;marker:none;-inkscape-font-specification:Sans"/>
    <path fill="#34e2af" d="M93 360v135c0 1.83333-.97052 3.90802-2.53125 5.46875S86.833333 503 85 503H10v4h75c3.166667 0 6.09198-1.52948 8.28125-3.71875C95.47052 501.09198 97 498.16667 97 495V360h-4z" color="#000" font-family="Sans" font-size="xx-small" font-weight="400" overflow="visible" style="text-indent:0;text-align:start;line-height:normal;text-transform:none;block-progression:tb;marker:none;-inkscape-font-specification:Sans"/>
    <path fill="#34e2af" d="M123.125 389.625V525c0 1.83333-.97052 3.90802-2.53125 5.46875S116.95833 533 115.125 533H10v4h105.125c3.16667 0 6.09198-1.52948 8.28125-3.71875 2.18927-2.18927 3.71875-5.11458 3.71875-8.28125V389.625h-4z" color="#000" font-family="Sans" font-size="xx-small" font-weight="400" overflow="visible" style="text-indent:0;text-align:start;line-height:normal;text-transform:none;block-progression:tb;marker:none;-inkscape-font-specification:Sans"/>
    <path fill="#34e2af" d="M152.84375 420.75V555c0 1.83333-.97052 3.90802-2.53125 5.46875S146.67708 563 144.84375 563H10v4h134.84375c3.16667 0 6.09198-1.52948 8.28125-3.71875 2.18927-2.18927 3.71875-5.11458 3.71875-8.28125V420.75h-4zM452.1875 180.84375V405c0 1.83333-.97052 3.90802-2.53125 5.46875S446.02083 413 444.1875 413H370v4h74.1875c3.16667 0 6.09198-1.52948 8.28125-3.71875 2.18927-2.18927 3.71875-5.11458 3.71875-8.28125V180.84375h-4zM183 450v110h4V450h-4zm30 30v80h4v-80h-4z" color="#000" font-family="Sans" font-size="xx-small" font-weight="400" overflow="visible" style="text-indent:0;text-align:start;line-height:normal;text-transform:none;block-progression:tb;marker:none;-inkscape-font-specification:Sans"/>
    <path fill="#34e2af" d="M483 180v375.90625c0 1.83333-.97052 3.90802-2.53125 5.46875s-3.63542 2.53125-5.46875 2.53125H251.625v4H475c3.16667 0 6.09198-1.52948 8.28125-3.71875 2.18927-2.18927 3.71875-5.11458 3.71875-8.28125V180h-4zM243 450v80h4v-80h-4z" color="#000" font-family="Sans" font-size="xx-small" font-weight="400" overflow="visible" style="text-indent:0;text-align:start;line-height:normal;text-transform:none;block-progression:tb;marker:none;-inkscape-font-specification:Sans"/>
    <path fill="#34e2af" d="M453.5625 449.78125V525c0 1.83333-.97052 3.90802-2.53125 5.46875S447.39583 533 445.5625 533H280v4h165.5625c3.16667 0 6.09198-1.52948 8.28125-3.71875 2.18927-2.18927 3.71875-5.11458 3.71875-8.28125v-75.21875h-4z" color="#000" font-family="Sans" font-size="xx-small" font-weight="400" overflow="visible" style="text-indent:0;text-align:start;line-height:normal;text-transform:none;block-progression:tb;marker:none;-inkscape-font-specification:Sans"/>
    <path fill="#34e2af" d="M400 443v4h13.78125c1.83333 0 3.87677.97052 5.4375 2.53125s2.5625 3.63542 2.5625 5.46875v14.8125h4V455c0-3.16667-1.52948-6.09198-3.71875-8.28125-2.18927-2.18927-5.11458-3.71875-8.28125-3.71875H400zm-30.0625 4.125-2.8125 2.8125 52.9375 52.9375 2.8125-2.8125-52.9375-52.9375zm-30 0-2.8125 2.8125 52.9375 52.9375 2.8125-2.8125-52.9375-52.9375zm-30 0-2.8125 2.8125 52.9375 52.9375 2.8125-2.8125-52.9375-52.9375zm-30 0-2.8125 2.8125 52.9375 52.9375 2.8125-2.8125-52.9375-52.9375zM400-7v4h164.46875c1.83333 0 3.90802.9705197 5.46875 2.53125S572.46875 3.1666667 572.46875 5v44.5h4V5c0-3.1666667-1.52948-6.0919803-3.71875-8.28125C570.56073-5.4705197 567.63542-7 564.46875-7H400z" color="#000" font-family="Sans" font-size="xx-small" font-weight="400" overflow="visible" style="text-indent:0;text-align:start;line-height:normal;text-transform:none;block-progression:tb;marker:none;-inkscape-font-specification:Sans"/>
    <path fill="#34e2af" d="M400 23v4h134.0625c1.83333 0 3.87677.97052 5.4375 2.53125s2.5625 3.635417 2.5625 5.46875v15.90625h4V35c0-3.166667-1.52948-6.09198-3.71875-8.28125C540.15448 24.52948 537.22917 23 534.0625 23H400zm80.0625 34.125-82.9375 82.9375 2.8125 2.8125 82.9375-82.9375-2.8125-2.8125zm-60 0L397.125 80.0625l2.8125 2.8125 22.9375-22.9375-2.8125-2.8125zm90 0-82.9375 82.9375 2.8125 2.8125 82.9375-82.9375-2.8125-2.8125zm0 30-52.9375 52.9375 2.8125 2.8125 52.9375-52.9375-2.8125-2.8125zm0 30-22.9375 22.9375 2.8125 2.8125 22.9375-22.9375-2.8125-2.8125zM543 90v73.9375c0 1.83333-.97052 3.90802-2.53125 5.46875S536.83333 171.9375 535 171.9375h-15.15625v4H535c3.16667 0 6.09198-1.49823 8.28125-3.6875 2.18927-2.18927 3.71875-5.14583 3.71875-8.3125V90h-4z" color="#000" font-family="Sans" font-size="xx-small" font-weight="400" overflow="visible" style="text-indent:0;text-align:start;line-height:normal;text-transform:none;block-progression:tb;marker:none;-inkscape-font-specification:Sans"/>
    <path fill="#34e2af" d="M573 90v103.65625c0 1.83333-.97052 3.90802-2.53125 5.46875s-3.63542 2.53125-5.46875 2.53125h-44.4375v4H565c3.16667 0 6.09198-1.49823 8.28125-3.6875 2.18927-2.18927 3.71875-5.14583 3.71875-8.3125V90h-4zM450.0625 57.125l-52.9375 52.9375 2.8125 2.8125 52.9375-52.9375-2.8125-2.8125zM520 233v4h45c1.83333 0 3.90802.97052 5.46875 2.53125S573 243.16667 573 245v45h4v-45c0-3.16667-1.52948-6.09198-3.71875-8.28125C571.09198 234.52948 568.16667 233 565 233h-45zm0 29.5625v4h15c1.83333 0 3.90802 1.00177 5.46875 2.5625S543 272.72917 543 274.5625V290h4v-15.4375c0-3.16667-1.52948-6.09198-3.71875-8.28125-2.18927-2.18927-5.11458-3.71875-8.28125-3.71875h-15zm50.0625 64.5625-52.9375 52.9375 2.8125 2.8125 52.9375-52.9375-2.8125-2.8125zm0 30-52.9375 52.9375 2.8125 2.8125 52.9375-52.9375-2.8125-2.8125zm0 30-52.9375 52.9375 2.8125 2.8125 52.9375-52.9375-2.8125-2.8125zM513 300v20h4v-20h-4zm0 30v20h4v-20h-4zm7-7v4h20v-4h-20zM273 480v20h4v-20h-4zm7 23v4h20v-4h-20zm293-83v135c0 1.83333-.97052 3.90802-2.53125 5.46875S566.83333 563 565 563h-45v4h45c3.16667 0 6.09198-1.52948 8.28125-3.71875C575.47052 561.09198 577 558.16667 577 555V420h-4z" color="#000" font-family="Sans" font-size="xx-small" font-weight="400" overflow="visible" style="text-indent:0;text-align:start;line-height:normal;text-transform:none;block-progression:tb;marker:none;-inkscape-font-specification:Sans"/>
    <path fill="#34e2af" d="M543 450v75c0 1.83333-.97052 3.90802-2.53125 5.46875S536.83333 533 535 533h-15v4h15c3.16667 0 6.09198-1.52948 8.28125-3.71875C545.47052 531.09198 547 528.16667 547 525v-75h-4zm-30 30v20h4v-20h-4zM10 83v4h110v-4H10z" color="#000" font-family="Sans" font-size="xx-small" font-weight="400" overflow="visible" style="text-indent:0;text-align:start;line-height:normal;text-transform:none;block-progression:tb;marker:none;-inkscape-font-specification:Sans"/>
    <path fill="#f8ffff" d="M95 109.99997c-2.76142 0-5 2.23858-5 5s2.23858 5 5 5 5-2.23858 5-5-2.23858-5-5-5zm0 2.5c1.38071 0 2.5 1.11929 2.5 2.5s-1.11929 2.5-2.5 2.5-2.5-1.11929-2.5-2.5 1.11929-2.5 2.5-2.5z"/>
    <path fill="#34e2af" d="M75 111.125c-3.166667 0-6.09198 1.49823-8.28125 3.6875C64.52948 117.00177 63 119.95833 63 123.125V230h4V123.125c0-1.83333.97052-3.90802 2.53125-5.46875S73.166667 115.125 75 115.125h15.5625v-4H75z" color="#000" font-family="Sans" font-size="xx-small" font-weight="400" overflow="visible" style="text-indent:0;text-align:start;line-height:normal;text-transform:none;block-progression:tb;marker:none;-inkscape-font-specification:Sans"/>
  </g>
  <rect width="110" height="110" x="265.0304" y="355.0264" fill="#1a1a1a" opacity=".5" rx="10" ry="10"/>
  <path fill="#fff" d="M310.043 399.52908h-1.28516q0-1.52441-.21191-4.40918-.21192-2.88476-.22559-3.45898h-.0684q-.68359 2.22168-1.73291 4.82275-1.04931 2.60108-1.04931 3.04541h-.92285q0-.47851-.97754-3.10009-.97754-2.62159-1.23731-3.51026-.25976-.88867-.35547-1.25781h-.0684q-.0205.93652-.27002 3.78027-.24951 2.84375-.24951 4.08789h-1.17578q0-.0684.46484-3.76318.46485-3.69482.46485-5.13721h1.79785q0 .75196 1.09375 3.75977t1.09375 3.64355h.0684q0-.63574 1.23047-3.65381 1.23047-3.01806 1.23047-3.74951h1.75683q0 1.44239.31446 5.11328.31445 3.6709.31445 3.78711zm8.44922-1.08691-.0889 1.01855q-.84082.25293-1.83203.25293-2.35156 0-3.53418-1.28857t-1.18262-3.14795q0-1.94824 1.31934-3.35986 1.31933-1.41162 3.54785-1.41162.61523 0 1.29883.18457l-.19141 1.08691q-.78613-.24609-1.40137-.24609-1.65429 0-2.50878 1.02539-.8545 1.02539-.8545 2.50879 0 1.51074.98438 2.59082.98437 1.08007 2.7207 1.08007.66309 0 1.72266-.29394zm3.89648 1.08691h-1.16894q.0752-1.44238.0752-2.99414 0-1.79785-.0752-2.65234l-1.5586.7793-.32129-.59473 2.46094-1.81152h.58789q-.0684 2.208-.0684 4.27929 0 1.46289.0684 2.99414zm7.34864-1.03222q0 1.38769-1.38428 2.49853t-3.98877 1.24072l-.19824-.84082q2.07129-.13671 3.23339-.82714 1.16211-.69043 1.16211-1.83204 0-1.05957-.86816-1.49365t-2.5293-.43408l.13672-.81348q1.31934 0 2.16699-.40332.84766-.40332.84766-1.10742 0-.66308-.5332-.94336-.53321-.28027-1.6543-.28027-.84082 0-1.46973.14355l.082-.96386q.62891-.18457 1.97559-.18457 1.24414 0 1.91748.52978.67334.52979.67334 1.26123 0 1.50391-1.5791 2.03027v.0684q.86816.16407 1.43896.79297.57081.62891.57081 1.5586zm4.35449 1.03222h-1.16895q.0752-1.44238.0752-2.99414 0-1.79785-.0752-2.65234l-1.55859.7793-.32129-.59473 2.46094-1.81152h.58789q-.0684 2.208-.0684 4.27929 0 1.46289.0684 2.99414z" font-family="Candara" font-size="14" font-weight="400" letter-spacing="0" style="line-height:125%;-inkscape-font-specification:Candara" word-spacing="0"/>
</svg>